{
	"asset":{
		"version":"2.0",
		"generator":"Created using the official Cinema 4D glTF Exporter 1.000x284978"
	},
	"textures":[{
		"sampler":0,
		"source":0
	}],
	"scenes":[{
		"nodes":[0]
	}],
	"images":[{
		"uri":"data:image/jpeg;base64,"
	}],
	"nodes":[{
		"name":"Default",
		"translation":[0.0,
		0.0,
		0.0],
		"rotation":[0.7071067690849304,
		0.0,
		0.0,
		-0.7071067690849304],
		"scale":[1.0,
		1.0,
		1.0],
		"mesh":0
	}],
	"samplers":[{
		"magFilter":9729,
		"minFilter":9729,
		"wrapS":10497,
		"wrapT":10497
	}],
	"meshes":[{
		"primitives":[{
			"attributes":{
				"POSITION":1,
				"NORMAL":2,
				"TEXCOORD_0":3
			},
			"indices":0,
			"material":0
		}],
		"name":"Default"
	}],
	"accessors":[{
		"bufferView":0,
		"type":"SCALAR",
		"componentType":5123,
		"min":[0],
		"count":240048,
		"byteOffset":0,
		"max":[42681]
	},
	{
		"bufferView":1,
		"type":"VEC3",
		"componentType":5126,
		"min":[-174.5990447998047,
		-272.5835266113281,
		0.8835200071334839],
		"count":42682,
		"byteOffset":0,
		"max":[174.59024047851563,
		245.7716827392578,
		485.3358459472656]
	},
	{
		"bufferView":1,
		"type":"VEC3",
		"componentType":5126,
		"min":[-0.9999977350234985,
		-0.9999984502792358,
		-0.9999995827674866],
		"count":42682,
		"byteOffset":12,
		"max":[0.9999765157699585,
		0.9999996423721314,
		0.9999524354934692]
	},
	{
		"bufferView":1,
		"type":"VEC2",
		"componentType":5126,
		"min":[0.008799999952316285,
		0.007999999448657036],
		"count":42682,
		"byteOffset":24,
		"max":[0.9871000051498413,
		0.9822999238967896]
	}],
	"bufferViews":[{
		"buffer":0,
		"byteOffset":0,
		"byteLength":480096,
		"target":34963
	},
	{
		"buffer":0,
		"byteOffset":480096,
		"byteLength":1365824,
		"target":34962,
		"byteStride":32
	}],
	"buffers":[{
		"uri":"data:application/octet-stream;base64,",
		"byteLength":1845920
	}],
	"materials":[{
		"pbrMetallicRoughness":{
			"baseColorTexture":{
				"index":0
			},
			"baseColorFactor":[1.0,
			1.0,
			1.0,
			1.0],
			"metallicFactor":1.0,
			"roughnessFactor":0.0
		},
		"emissiveFactor":[0.0,
		0.0,
		0.0],
		"alphaMode":"OPAQUE",
		"doubleSided":false,
		"name":"12140_Skull_v3"
	}]
}